<?xml version="1.0" encoding="utf-8"?>
<!-- Generator: Adobe Illustrator 26.0.1, SVG Export Plug-In . SVG Version: 6.00 Build 0)  -->
<svg version="1.1" id="Layer_1" xmlns="http://www.w3.org/2000/svg" xmlns:xlink="http://www.w3.org/1999/xlink" x="0px" y="0px"
	 viewBox="0 0 437.5 116.5" style="enable-background:new 0 0 437.5 116.5;" xml:space="preserve">
<style type="text/css">
	.st0{fill:#FE864F;}
	.st1{fill:#F2F2F2;}
	.st2{enable-background:new    ;}
	.st3{font-family:'Montserrat-BoldItalic';}
	.st4{font-size:78.9571px;}
</style>
<g id="Layer_7">
	<g>
		<g>
			<rect x="2.9" y="55.5" class="st0" width="43.3" height="10.8"/>
			<path class="st1" d="M2.9,71.7h27.1v21.7h48.1c0,0-10.6,10.8-34.1,10.8S5.1,84.1,2.9,71.7z"/>
			<path class="st1" d="M2.9,50h27.3V28.2h47.9c0,0-10.6-10.6-34.1-10.6S5.1,37.7,2.9,50z"/>
			<polygon class="st1" points="35.3,33.8 67.8,33.8 78.7,50.1 67.8,50.1 67.8,60.9 51.6,88 51.6,50.1 35.3,50.1 			"/>
			<polygon class="st0" points="67.8,88 57.1,88 67.8,69.5 			"/>
			<polygon class="st0" points="78.7,33.8 73.2,33.8 78.7,42.5 			"/>
		</g>
		<text transform="matrix(1 0 0 1 106.57 82.35)" class="st2"><tspan x="0" y="0" class="st0 st3 st4">easy</tspan><tspan x="193.2" y="0" class="st1 st3 st4">thz</tspan></text>
	</g>
</g>
</svg>
